<?xml version="1.0" encoding="UTF-8" standalone="no"?>
<svg
  xmlns:svg="http://www.w3.org/2000/svg"
  xmlns="http://www.w3.org/2000/svg"
  height="128"
  width="128"
  viewBox="0 0 128 128">
  <path
    d="M 104.58964,22.816266 C 94.246256,7.918001 73.654385,3.552904 58.851014,12.947351 l -26.095687,16.70124 c -7.117005,4.45999 -12.051463,11.766782 -13.474864,20.022508 -1.233613,6.927219 -0.189787,14.044224 3.131483,20.212296 -2.277442,3.416163 -3.795737,7.211899 -4.45999,11.197422 -1.518295,8.445513 0.474467,17.175708 5.408924,24.102913 10.438274,14.89827 30.93525,19.26336 45.738621,9.86891 L 95.195185,98.446315 c 7.117015,-4.45999 12.051465,-11.766788 13.474865,-20.022514 1.23362,-6.927219 0.18979,-14.044224 -3.13149,-20.212295 2.27744,-3.416162 3.79574,-7.211899 4.46,-11.197421 1.61319,-8.540407 -0.37957,-17.270601 -5.40892,-24.197819"
    style="fill:#ff3e00;stroke-width:0.94893408"/>
  <path
    d="m 56.313633,106.60713 c -8.445512,2.18255 -17.270599,-1.13872 -22.205056,-8.255715 -3.036589,-4.17531 -4.17531,-9.394445 -3.321269,-14.51869 0.189786,-0.85404 0.379574,-1.613188 0.569361,-2.467228 l 0.474467,-1.518295 1.328507,0.948934 c 3.131482,2.277443 6.547645,3.985523 10.248488,5.124245 l 0.948934,0.284679 -0.09489,0.948934 c -0.09489,1.328509 0.284681,2.75191 1.043828,3.89063 1.518295,2.182551 4.175309,3.226371 6.737431,2.562121 0.569361,-0.18979 1.138722,-0.37957 1.613189,-0.66425 L 79.657412,76.336147 c 1.328507,-0.854041 2.182548,-2.087655 2.467228,-3.60595 0.28468,-1.518294 -0.09489,-3.131483 -0.948934,-4.365096 -1.518294,-2.182549 -4.17531,-3.131483 -6.737432,-2.467229 -0.56936,0.189787 -1.13872,0.379573 -1.613187,0.664254 l -9.963808,6.357858 c -1.613188,1.043827 -3.416163,1.802975 -5.314031,2.277442 -8.445513,2.182548 -17.2706,-1.138721 -22.205057,-8.255726 -2.941696,-4.175311 -4.175309,-9.394448 -3.226375,-14.518692 0.85404,-4.934456 3.890629,-9.394447 8.160832,-12.051462 L 66.372335,23.7652 c 1.613188,-1.043828 3.416163,-1.802975 5.314031,-2.372335 8.445513,-2.182549 17.2706,1.138721 22.20506,8.255726 3.036584,4.17531 4.175309,9.394447 3.321266,14.518691 -0.189788,0.854041 -0.379575,1.613188 -0.664257,2.467228 l -0.47446,1.518295 -1.328514,-0.948934 c -3.13148,-2.277442 -6.547643,-3.985523 -10.248485,-5.124244 l -0.948934,-0.28468 0.09489,-0.948934 c 0.09489,-1.328508 -0.28468,-2.751909 -1.043826,-3.89063 -1.518295,-2.182548 -4.175311,-3.131482 -6.737433,-2.467229 -0.56936,0.189788 -1.13872,0.379574 -1.613187,0.664255 L 48.247695,51.758755 c -1.328508,0.85404 -2.182549,2.087655 -2.467229,3.605949 -0.28468,1.518294 0.09489,3.131482 0.948934,4.365097 1.518295,2.182548 4.17531,3.131482 6.737431,2.467228 0.569361,-0.189787 1.138722,-0.379574 1.613189,-0.664254 l 9.963808,-6.357858 c 1.613187,-1.043827 3.416162,-1.802974 5.31403,-2.372335 8.445513,-2.182549 17.270599,1.13872 22.205055,8.255726 3.036594,4.17531 4.17531,9.394448 3.321275,14.518691 -0.854046,4.934457 -3.890637,9.394448 -8.160837,12.051462 L 61.627665,104.2348 c -1.613188,1.04382 -3.416163,1.80297 -5.314032,2.37233"
    style="fill:#ffffff;stroke-width:0.94893408"/>

  <svg x="70" y="65">
    <path d="M31.964,18.004c-0.104-1.472-0.668-2.584-1.673-3.305c-1.29-0.923-3.024-0.998-4.276-0.896
		c0.903-0.586,1.793-1.102,2.573-1.493c1.344-0.836,0.261-2.708-1.11-5.078c-0.238-0.412-0.485-0.841-0.729-1.279
		c-0.445-0.8-0.853-1.649-1.244-2.472c-0.887-1.855-1.417-2.916-2.021-3.15c-0.526-0.207-1.341-0.276-2.225,0.568
		c-2.444,2.333-3.986,10.65-3.987,14.08c-0.098-0.044-0.197-0.079-0.298-0.102c-0.003-0.002-0.006-0.003-0.009-0.004
		c0.006-0.908-0.024-2.486-0.263-3.57c0.066-0.046,0.114-0.122,0.101-0.223c-0.02-0.149-0.04-0.299-0.06-0.448
		c-0.038-0.283-0.469-0.18-0.432,0.102c0.02,0.149,0.04,0.299,0.06,0.448c0.014,0.104,0.08,0.154,0.157,0.164
		c0.23,1.047,0.262,2.592,0.258,3.497c-0.142-0.013-0.286,0.006-0.426,0.072c-0.091,0.043-0.164,0.1-0.224,0.166
		c-0.82-0.478-2.125-1.316-3.042-2.292c0.041-0.074,0.044-0.168-0.026-0.25c-0.113-0.131-0.227-0.262-0.339-0.392
		c-0.188-0.217-0.512,0.085-0.325,0.301c0.113,0.13,0.226,0.261,0.339,0.392c0.065,0.075,0.146,0.086,0.217,0.062
		c0.929,0.991,2.245,1.839,3.076,2.325c-0.093,0.172-0.127,0.381-0.124,0.601c-3.143-1.375-11.381-3.296-14.499-1.993
		c-1.127,0.472-1.39,1.246-1.412,1.81c-0.027,0.646,0.731,1.558,2.075,3.112c0.596,0.69,1.212,1.403,1.766,2.132
		c0.304,0.399,0.597,0.799,0.879,1.183c1.622,2.206,2.902,3.948,4.208,3.053c0.67-0.559,1.5-1.167,2.399-1.759
		c-0.596,1.104-1.223,2.725-0.894,4.275c0.257,1.211,1.049,2.173,2.356,2.857c4.624,2.429,7.358,0.819,8.256,0.291
		c0.062-0.036,0.114-0.067,0.157-0.091c0.115-0.063,0.203-0.162,0.27-0.313c0.183-0.418,0.201-1.23,0.195-2.767
		c-0.004-0.896-0.007-2.188,0.12-3.028c0.416,0.439,0.854,0.475,1.022,0.202c0.211-0.125,0.286-0.474,0.114-0.919
		c0.821,0.218,2.016,0.744,2.838,1.107c1.404,0.621,2.157,0.931,2.613,0.931c0.165,0,0.292-0.04,0.396-0.121
		c0.039-0.03,0.087-0.065,0.146-0.107C29.765,25.074,32.335,23.213,31.964,18.004z M29.418,18.115
		c-0.532,0.842-1.565,1.034-2.481,1.15c-0.532,0.061-1.062,0.148-1.581,0.236c-1.319,0.447-4.238,0.28-4.238,0.147
		s3.427-1.033,5.007-1.875c0.414-0.223,0.856-0.354,1.256-0.592c0.397-0.235,0.724-0.502,1.093-0.769
		C29.463,15.677,29.816,17.495,29.418,18.115z M19.136,17.419c0.004-1.591,0.82-3.833,1.036-4.872
		c0.354-1.536,0.295-3.131,0.532-4.667c0.177-1.359,1.595-2.6,2.48-0.827c0.705,1.358-2.231,9.268-3.375,11.477
		C19.572,18.136,19.345,17.761,19.136,17.419z M25.253,8.647c3.072,0.886-1.299,6.381-2.776,5.317
		C22.477,13.965,23.48,8.175,25.253,8.647z M26.258,15.012c0.354,0.045,1.078,0.281,1.123,0.68c0.103,0.9-1.329,1.507-1.979,1.803
		c-0.428,0.191-0.871,0.31-1.284,0.531c-0.443,0.251-0.856,0.53-1.314,0.724c-0.428,0.162-1.905,0.679-1.935,0.429
		c0,0,1.535-1.173,1.758-1.537c0.221-0.362,0.827-0.797,1.195-1.255c0.354-0.429,0.665-0.665,1.167-0.916
		C25.4,15.264,25.785,14.954,26.258,15.012z M27.786,10.523c0.044,0.643-0.066,0.93-0.643,1.308
		c-0.408,0.259-1.386,0.77-1.696,0.931c-0.057,0.045-0.099,0.071-0.099,0.051c0,0,0.038-0.019,0.099-0.051
		c0.132-0.104,0.356-0.316,0.434-0.378c0.244-0.199,0.377-0.421,0.51-0.687c0.266-0.51,0.155-1.107,0.421-1.573
		C27.21,9.371,27.764,9.947,27.786,10.523z M26.103,7.221c0.244,0.487,0.842,1.189,1.064,1.678c0.177,0.354-0.089,0.627-0.465,0.737
		c-0.178,0.066-0.399-0.959-0.843-1.151c-0.442-0.192-0.621-0.178-0.731-0.288c-0.177-0.222,0.044-0.531,0.155-0.731
		C25.549,7.001,25.748,6.536,26.103,7.221z M25.104,5.671c-0.088,0.621-0.332,1.286-0.62,1.817
		c-0.243,0.398-0.575,1.499-0.951,1.787c0,0,0.154-2.488,0.266-2.954c0.089-0.398,0.288-1.248,0.576-1.536
		C24.928,4.253,25.149,5.295,25.104,5.671z M22.558,1.594c0.819-0.066,1.905,1.529,1.551,2.26c-0.222,0.466-0.311,0.79-0.51,1.3
		c-0.088,0.244-0.162,1.494-0.25,1.604L22.093,3.92C21.871,3.344,21.693,1.662,22.558,1.594z M20.446,4.892
		c0.066-0.199,0.573-2.057,0.816-1.99c0.222,0.044,1.117,2.042,0.911,2.511c-0.104,0.235-0.43,0.293-0.731,0.539
		c-0.3,0.246-0.575,0.68-0.642,0.779c-0.2-0.154-0.354-0.377-0.421-0.62C20.27,5.712,20.336,5.27,20.446,4.892z M19.202,8.711
		c0.117-0.532,0.06-1.891,0.826-1.949c0.945-0.06,0.354,1.181,0.236,1.654c-0.591,2.362-0.648,4.785-1.536,7.029
		C18.729,15.445,19.023,9.892,19.202,8.711z M17.394,18.511c0.23,0.328,0.484,0.688,0.749,1.065
		c-2.485,0.16-10.903-0.32-11.865-1.51c-1.268-1.522,0.437-2.324,1.752-1.941c1.502,0.398,2.939,1.093,4.489,1.384
		C13.558,17.728,15.936,17.879,17.394,18.511z M7.276,15.058c0.362-0.68,1.583-0.081,2.117,0.024
		c1.154,0.312,6.359,2.267,6.359,2.267c-2.412-0.088-4.654-1.005-7.056-1.41C8.217,15.857,6.845,15.901,7.276,15.058z M5.397,14.692
		c0.39,0.05,0.822,0.166,1.143,0.428c0.196,0.158,0.337,0.389,0.399,0.634c-0.118,0.021-0.626,0.101-0.971,0.275
		c-0.347,0.178-0.53,0.453-0.787,0.454c-0.513,0.001-1.983-1.62-1.935-1.841C3.284,14.393,5.188,14.674,5.397,14.692z M2.979,17.632
		c-0.812,0.031-1.838-1.604-1.448-2.327c0.407-0.765,1.879,0.072,2.317,0.508L5.943,18.1c-0.137,0.036-1.312-0.396-1.57-0.413
		C3.827,17.664,3.495,17.615,2.979,17.632z M4.244,19.273c-0.363-0.111-1.228-0.731-0.519-1.025c0.379-0.148,1.237,0.01,1.638,0.088
		c0.471,0.085,2.813,0.941,2.813,0.941C7.76,19.506,6.62,19.37,6.156,19.432C5.554,19.483,4.848,19.44,4.244,19.273z M6.374,22.454
		c-0.357-0.397-0.76-1.229-1.109-1.646c-0.487-0.6,0.02-0.596,0.552-0.652c0.227-0.021,0.6-0.101,0.731,0.15
		c0.057,0.146-0.027,0.303-0.029,0.785c-0.002,0.483,0.85,1.099,0.718,1.233C6.984,22.625,6.626,22.759,6.374,22.454z
		 M10.602,22.428c-0.272,0.221-1.132,0.911-1.533,1.182c-0.576,0.377-0.884,0.361-1.455,0.063c-0.52-0.251-0.825-0.989,0.025-1.053
		c0.533-0.058,1.037,0.283,1.61,0.245c0.297-0.017,0.553-0.049,0.833-0.192C10.169,22.628,10.455,22.508,10.602,22.428
		c0.053-0.043,0.086-0.069,0.086-0.069C10.707,22.367,10.666,22.395,10.602,22.428z M6.911,20.6
		c0.277-1.812,5.984-0.411,5.984-0.411C13.276,21.968,6.491,23.771,6.911,20.6z M12.339,24.073c0.136-0.457,0.574-0.685,0.928-0.98
		c0.432-0.358,0.773-0.548,1.307-0.702c0.567-0.153,1.208-0.534,1.629-0.592c0.422-0.058,2.112-0.995,2.112-0.995
		c0.219,0.128-0.848,1.274-1.168,1.603c-0.36,0.343-0.782,0.607-1.19,0.914c-0.369,0.29-0.655,0.647-1.002,0.964
		c-0.532,0.478-1.66,1.547-2.445,1.091C12.165,25.174,12.237,24.416,12.339,24.073z M12.736,26.666
		c0.392-0.232,0.766-0.424,1.142-0.694c0.376-0.27,0.676-0.623,1.045-0.913c1.404-1.109,3.604-3.889,3.725-3.835
		c0.122,0.055-0.896,2.794-1.834,3.824c-0.289,0.438-0.583,0.891-0.851,1.354c-0.476,0.792-1.065,1.662-2.05,1.812
		C13.186,28.329,11.664,27.275,12.736,26.666z M14.364,30.162c-0.405-0.285-1.193-0.438-1.509-1.188s2.016-0.26,2.205-0.261
		c0.378-0.001,0.403,1.24,0.403,1.24S14.77,30.447,14.364,30.162z M17.416,29.422c-0.149,0.451-0.532,0.735-1.043,0.688
		c-0.891-0.101-0.734-1.418-0.566-2.022c0.118-0.415,0.338-0.771,0.536-1.149c0.193-0.367,0.332-0.759,0.511-1.132
		c0.191-0.398,0.452-0.736,0.691-1.101c0.22-0.355,0.366-0.727,0.565-1.074c0.341-0.593,0.462-2.248,0.734-2.08
		c0.271,0.166,0.281,1.235,0.222,1.628c-0.135,0.716-0.305,1.398-0.474,2.114c-0.221,0.983-0.446,2.014-0.767,2.969
		C17.687,28.654,17.554,29.031,17.416,29.422z M20.219,27.472c-0.114,0.627,0.175,2.253-0.589,2.563
		c-0.935,0.365-1.155-1.634-1.111-2.179c0.075-0.87,0.229-1.852,0.565-2.654c0.216-0.567,0.35-1.169,0.471-1.776
		c0.086-0.382-0.273-1.261-0.059-1.154c0.826,0.543,1.055,1.752,1.088,2.522C20.632,25.718,20.393,26.597,20.219,27.472z
		 M28.798,24.082c-0.591,0.575-1.965-0.34-2.585-0.487c-0.871-0.191-1.772-0.324-2.601-0.737c-0.693-0.342-1.709-1.034-1.875-2.011
		c-0.011-0.237,0.649,0.444,1.034,0.519c0.605,0.133,1.211,0.251,1.817,0.28c0.871,0.015,1.831,0.267,2.659,0.547
		C27.764,22.369,29.507,23.373,28.798,24.082z M30.172,21.128c-0.163,0.487-0.576,0.725-1.049,0.68
		c-0.414-0.028-0.813-0.06-1.227-0.089c-1.004-0.089-2.038-0.295-3.027-0.486c-0.725-0.134-1.418-0.252-2.127-0.414
		c-0.385-0.104-1.358-0.54-1.403-0.856c-0.044-0.314,1.521,0.236,2.201,0.163c0.398-0.045,0.797-0.03,1.211-0.089
		c0.428-0.074,0.842-0.178,1.285-0.192c0.414-0.015,0.826,0.016,1.24-0.015c0.429-0.029,0.843-0.089,1.271-0.029
		C29.167,19.886,30.438,20.271,30.172,21.128z M30.393,20.232c0,0-1.126-0.521-0.975-0.866c0.077-0.174,0.562-2.508,1.123-1.916
		c0.561,0.591,0.385,1.374,0.482,1.857C31.123,19.795,30.393,20.232,30.393,20.232z"/>
  </svg>

</svg>
